<svg xmlns="http://www.w3.org/2000/svg" width="500" height="500"><path d="M27.039 461.819l-2.966-175.037 28.177-5.933 2.966 151.797 128.528-30.655.989 22.251-157.694 37.577zM157.05 105.813l.989 29.667 53.388-12.856v26.7l-52.894 12.856 1.483 103.835-21.751 4.944-1.978-103.34L30.5 192.342 135.299 6.922 164.96 0 75.485 154.764l60.309-13.351-.495-30.655 21.751-4.945zm100.351 274.916c-19.773 4.451-38.064-6.427-43.008-32.635-6.426-33.622 4.943-72.189 39.547-80.595 18.785-4.45 37.076 7.417 42.02 33.129 6.92 37.084-6.427 72.685-38.559 80.101zm-.495-22.746c12.359-1.978 20.763-24.229 15.325-49.444-2.966-13.845-9.393-21.757-17.796-19.284-14.336 3.956-20.269 26.206-15.819 49.445 2.966 14.834 9.886 20.767 18.29 19.283zm177.467 2.474L303.868 216.57l29.166-70.707 144.843 6.428 1.977 26.207-132.977-8.9-14.831 38.073 132.979 145.864v13.351l-202.68 133.008-.494-28.184 172.522-111.253z"/></svg>